HIERARCHY
ROOT hip
{
  OFFSET 0 0 0
  CHANNELS 6 Xposition Yposition Zposition Zrotation Yrotation Xrotation
  JOINT abdomen
  {
    OFFSET 0 20.6881 -0.73152
    CHANNELS 3 Zrotation Xrotation Yrotation
    JOINT chest
    {
      OFFSET 0 11.7043 -0.48768
      CHANNELS 3 Zrotation Xrotation Yrotation
      JOINT neck
      {
        OFFSET 0 22.1894 -2.19456
        CHANNELS 3 Zrotation Xrotation Yrotation
        JOINT head
        {
          OFFSET -0.24384 7.07133 1.2192
          CHANNELS 3 Zrotation Xrotation Yrotation
          JOINT leftEye
          {
            OFFSET 4.14528 8.04674 8.04672
            CHANNELS 3 Zrotation Xrotation Yrotation
            End Site
            {
              OFFSET 1 0 0
            }
          }
          JOINT rightEye
          {
            OFFSET -3.6576 8.04674 8.04672
            CHANNELS 3 Zrotation Xrotation Yrotation
            End Site
            {
              OFFSET 1 0 0
            }
          }
        }
      }
      JOINT rCollar
      {
        OFFSET -2.68224 19.2634 -4.8768
        CHANNELS 3 Zrotation Xrotation Yrotation
        JOINT rShldr
        {
          OFFSET -8.77824 -1.95073 1.46304
          CHANNELS 3 Zrotation Xrotation Yrotation
          JOINT rForeArm
          {
            OFFSET -28.1742 -1.7115 0.48768
            CHANNELS 3 Zrotation Xrotation Yrotation
            JOINT rHand
            {
              OFFSET -22.5879 0.773209 7.07136
              CHANNELS 3 Zrotation Xrotation Yrotation
              JOINT rThumb1
              {
                OFFSET -1.2192 -0.487915 3.41376
                CHANNELS 3 Zrotation Xrotation Yrotation
                JOINT rThumb2
                {
                  OFFSET -3.37035 -0.52449 3.41376
                  CHANNELS 3 Zrotation Xrotation Yrotation
                  End Site
                  {
                    OFFSET -1.78271 -1.18214 1.43049
                  }
                }
              }
              JOINT rIndex1
              {
                OFFSET -7.75947 0.938293 5.60832
                CHANNELS 3 Zrotation Xrotation Yrotation
                JOINT rIndex2
                {
                  OFFSET -2.54057 -0.884171 1.56538
                  CHANNELS 3 Zrotation Xrotation Yrotation
                  End Site
                  {
                    OFFSET -1.62519 -0.234802 1.16502
                  }
                }
              }
              JOINT rMid1
              {
                OFFSET -8.24714 1.18213 3.41376
                CHANNELS 3 Zrotation Xrotation Yrotation
                JOINT rMid2
                {
                  OFFSET -3.10165 -0.590103 1.0647
                  CHANNELS 3 Zrotation Xrotation Yrotation
                  End Site
                  {
                    OFFSET -2.48547 -0.328903 0.83742
                  }
                }
              }
              JOINT rRing1
              {
                OFFSET -8.82822 0.546677 1.51678
                CHANNELS 3 Zrotation Xrotation Yrotation
                JOINT rRing2
                {
                  OFFSET -2.60934 -0.819778 -0.0198488
                  CHANNELS 3 Zrotation Xrotation Yrotation
                  End Site
                  {
                    OFFSET -2.33842 -0.294052 0.168128
                  }
                }
              }
              JOINT rPinky1
              {
                OFFSET -8.27202 -0.0477905 -0.4584
                CHANNELS 3 Zrotation Xrotation Yrotation
                JOINT rPinky2
                {
                  OFFSET -1.82734 -0.647385 -0.700984
                  CHANNELS 3 Zrotation Xrotation Yrotation
                  End Site
                  {
                    OFFSET -1.69225 -0.51767 -0.607171
                  }
                }
              }
            }
          }
        }
      }
      JOINT lCollar
      {
        OFFSET 2.68224 19.2634 -4.8768
        CHANNELS 3 Zrotation Xrotation Yrotation
        JOINT lShldr
        {
          OFFSET 8.77824 -1.95073 1.46304
          CHANNELS 3 Zrotation Xrotation Yrotation
          JOINT lForeArm
          {
            OFFSET 28.1742 -1.7115 0.48768
            CHANNELS 3 Zrotation Xrotation Yrotation
            JOINT lHand
            {
              OFFSET 22.5879 0.773209 7.07136
              CHANNELS 3 Zrotation Xrotation Yrotation
              JOINT lThumb1
              {
                OFFSET 1.2192 -0.487915 3.41376
                CHANNELS 3 Zrotation Xrotation Yrotation
                JOINT lThumb2
                {
                  OFFSET 3.37035 -0.52449 3.41376
                  CHANNELS 3 Zrotation Xrotation Yrotation
                  End Site
                  {
                    OFFSET 1.78271 -1.18214 1.43049
                  }
                }
              }
              JOINT lIndex1
              {
                OFFSET 7.75947 0.938293 5.60832
                CHANNELS 3 Zrotation Xrotation Yrotation
                JOINT lIndex2
                {
                  OFFSET 2.54057 -0.884171 1.56538
                  CHANNELS 3 Zrotation Xrotation Yrotation
                  End Site
                  {
                    OFFSET 1.62519 -0.234802 1.16502
                  }
                }
              }
              JOINT lMid1
              {
                OFFSET 8.24714 1.18213 3.41376
                CHANNELS 3 Zrotation Xrotation Yrotation
                JOINT lMid2
                {
                  OFFSET 3.10165 -0.590103 1.0647
                  CHANNELS 3 Zrotation Xrotation Yrotation
                  End Site
                  {
                    OFFSET 2.48547 -0.328903 0.83742
                  }
                }
              }
              JOINT lRing1
              {
                OFFSET 8.82822 0.546677 1.51678
                CHANNELS 3 Zrotation Xrotation Yrotation
                JOINT lRing2
                {
                  OFFSET 2.60934 -0.819778 -0.0198488
                  CHANNELS 3 Zrotation Xrotation Yrotation
                  End Site
                  {
                    OFFSET 2.33842 -0.294052 0.168128
                  }
                }
              }
              JOINT lPinky1
              {
                OFFSET 8.27202 -0.0477905 -0.4584
                CHANNELS 3 Zrotation Xrotation Yrotation
                JOINT lPinky2
                {
                  OFFSET 1.82734 -0.647385 -0.700984
                  CHANNELS 3 Zrotation Xrotation Yrotation
                  End Site
                  {
                    OFFSET 1.69225 -0.51767 -0.607171
                  }
                }
              }
            }
          }
        }
      }
    }
  }
  JOINT rButtock
  {
    OFFSET -8.77824 4.35084 1.2192
    CHANNELS 3 Zrotation Xrotation Yrotation
    JOINT rThigh
    {
      OFFSET 0 -1.70687 -2.19456
      CHANNELS 3 Zrotation Xrotation Yrotation
      JOINT rShin
      {
        OFFSET 0 -36.8199 0.73152
        CHANNELS 3 Zrotation Xrotation Yrotation
        JOINT rFoot
        {
          OFFSET 0.73152 -45.1104 -5.12064
          CHANNELS 3 Zrotation Xrotation Yrotation
          End Site
          {
            OFFSET -1.1221 -3.69964 12.103
          }
        }
      }
    }
  }
  JOINT lButtock
  {
    OFFSET 8.77824 4.35084 1.2192
    CHANNELS 3 Zrotation Xrotation Yrotation
    JOINT lThigh
    {
      OFFSET 0 -1.70687 -2.19456
      CHANNELS 3 Zrotation Xrotation Yrotation
      JOINT lShin
      {
        OFFSET 0 -36.8199 0.73152
        CHANNELS 3 Zrotation Xrotation Yrotation
        JOINT lFoot
        {
          OFFSET -0.73152 -45.1104 -5.12064
          CHANNELS 3 Zrotation Xrotation Yrotation
          End Site
          {
            OFFSET 1.1221 -3.69964 12.103
          }
        }
      }
    }
  }
}
MOTION
Frames:	8
Frame Time:	0.00833333
10.2253 76.162 92.4219 -4.4003 1.85 7.719 5.88467 2.00512 2.24422 0.198603 -5.49594 0.600752 -3.21401 -5.58818 -0.98204 -1.93815 -6.06262 -0.852846 -0.0 0.0 0.0 -0.0 0.0 0.0 -4.05523e-14 -2.65861e-14 -5.96676e-14 76.4573 31.3019 4.39505 -26.2361 -24.056 57.7682 -0.0246136 4.46521 0.628837 4.74811e-10 -3.20122e-09 2.26997e-10 8.20904e-10 -5.53091e-09 3.91267e-10 4.74814e-10 -3.20121e-09 2.26988e-10 7.73091 5.47488 0.417314 4.74816e-10 -3.20123e-09 2.26998e-10 2.90554 0.965183 0.102902 4.74814e-10 -3.20122e-09 2.26996e-10 10.2786 0.731801 0.0259123 4.7481e-10 -3.20122e-09 2.27002e-10 2.22167 -0.733487 -0.20892 -4.06399e-14 -2.65892e-14 -5.9668e-14 -85.6944 27.9223 12.5348 21.184 -14.5771 -41.6421 0.00252285 -1.39311 0.195839 8.30618e-10 1.0452e-09 1.25213e-10 1.43641e-09 1.80784e-09 2.16171e-10 8.30611e-10 1.04519e-09 1.25221e-10 -7.73091 5.47488 -0.417314 8.30617e-10 1.0452e-09 1.25221e-10 -2.90554 0.965183 -0.102902 8.30609e-10 1.0452e-09 1.25215e-10 -10.2786 0.731801 -0.0259123 8.30618e-10 1.0452e-09 1.25212e-10 -2.22167 -0.733487 0.20892 -2.03217e-16 0.0 -3.88251e-19 5.35425 -14.9472 -0.214208 -0.226323 31.7169 0.459039 -0.375959 -15.0156 0.791515 2.03217e-16 0.0 3.88251e-19 -0.465157 -22.5932 -1.63279 0.253448 36.4707 -0.460592 -1.11462 -15.9684 -5.61366
10.3246 76.0408 92.8681 -4.389 1.9671 8.0778 5.98609 2.00069 2.19156 0.147482 -5.52863 0.583753 -3.22757 -5.60488 -0.980488 -2.01736 -6.23171 -0.85117 -0.0 0.0 0.0 -0.0 0.0 0.0 -2.48342e-14 4.61192e-14 -9.13913e-14 76.4958 31.5679 4.39039 -26.2119 -23.9909 57.6627 -0.022653 4.29263 0.604433 -4.24126e-12 -2.31336e-09 7.5423e-10 -5.25507e-12 -4.00738e-09 1.30288e-09 -4.2369e-12 -2.31335e-09 7.54224e-10 7.73091 5.47488 0.417314 -4.23446e-12 -2.31337e-09 7.54234e-10 2.90554 0.965183 0.102902 -4.23756e-12 -2.31335e-09 7.5423e-10 10.2786 0.731801 0.0259123 -4.24187e-12 -2.31335e-09 7.54237e-10 2.22167 -0.733487 -0.20892 -2.4963e-14 4.61161e-14 -9.14409e-14 -85.6237 28.7205 12.2328 21.4667 -14.9765 -42.3717 0.00417292 -1.84417 0.259272 7.00643e-10 1.25407e-09 -9.29263e-11 1.21256e-09 2.1698e-09 -1.60119e-10 7.00636e-10 1.25406e-09 -9.29199e-11 -7.73091 5.47488 -0.417314 7.00641e-10 1.25406e-09 -9.29167e-11 -2.90554 0.965183 -0.102902 7.00635e-10 1.25407e-09 -9.29239e-11 -10.2786 0.731801 -0.0259123 7.00643e-10 1.25407e-09 -9.29263e-11 -2.22167 -0.733487 0.20892 -2.03217e-16 0.0 -3.88251e-19 5.26935 -15.0736 -0.294391 -0.227702 31.8392 0.462647 -0.369329 -15.4038 0.785889 2.03217e-16 0.0 3.88251e-19 -0.514639 -22.6956 -1.62401 0.254226 36.5106 -0.460277 -1.21784 -16.3936 -5.79476
10.3825 75.9173 93.2729 -4.4278 1.8265 8.5638 6.05723 2.024 2.18259 0.111895 -5.5552 0.580082 -3.23081 -5.61415 -0.976766 -2.11523 -6.40763 -0.850905 -0.0 0.0 0.0 -0.0 0.0 0.0 9.57486e-15 1.15162e-13 -1.04244e-13 76.4773 31.89 4.40171 -26.193 -23.9402 57.5821 -0.0199291 4.04386 0.56927 -5.24629e-10 -1.35951e-09 1.20229e-09 -9.03294e-10 -2.36617e-09 2.0776e-09 -5.24625e-10 -1.35951e-09 1.20228e-09 7.73091 5.47488 0.417314 -5.24623e-10 -1.35952e-09 1.20229e-09 2.90554 0.965183 0.102902 -5.24625e-10 -1.3595e-09 1.20229e-09 10.2786 0.731801 0.0259123 -5.2463e-10 -1.35951e-09 1.20229e-09 2.22167 -0.733487 -0.20892 9.40311e-15 1.1516e-13 -1.0436e-13 -85.5427 29.5918 11.9525 21.7656 -15.4115 -43.1503 0.00651063 -2.34518 0.329764 4.47322e-10 1.13145e-09 -3.74916e-10 7.76303e-10 1.95966e-09 -6.47201e-10 4.47316e-10 1.13144e-09 -3.74906e-10 -7.73091 5.47488 -0.417314 4.4732e-10 1.13145e-09 -3.74905e-10 -2.90554 0.965183 -0.102902 4.47315e-10 1.13145e-09 -3.74912e-10 -10.2786 0.731801 -0.0259123 4.47323e-10 1.13145e-09 -3.74914e-10 -2.22167 -0.733487 0.20892 -2.03217e-16 0.0 -3.88251e-19 5.17475 -15.1854 -0.307205 -0.229419 31.9847 0.466658 -0.35933 -15.8245 0.787444 2.03217e-16 0.0 3.88251e-19 -0.59174 -22.7586 -1.6315 0.254678 36.5473 -0.461462 -1.29381 -16.8241 -5.88534
10.4605 75.7829 93.7322 -4.4676 1.803 8.868 6.11968 2.06966 2.20404 0.0842989 -5.58041 0.585669 -3.22755 -5.62085 -0.971289 -2.23038 -6.58635 -0.850956 -0.0 0.0 0.0 -0.0 0.0 0.0 5.98735e-14 1.88173e-13 -1.06617e-13 76.4094 32.2604 4.42448 -26.1808 -23.9077 57.5301 -0.0169128 3.73668 0.525892 -1.12787e-09 -1.5762e-10 1.63294e-09 -1.94468e-09 -2.94674e-10 2.82228e-09 -1.12786e-09 -1.5761e-10 1.63293e-09 7.73091 5.47488 0.417314 -1.12786e-09 -1.57625e-10 1.63294e-09 2.90554 0.965183 0.102902 -1.12786e-09 -1.57609e-10 1.63294e-09 10.2786 0.731801 0.0259123 -1.12787e-09 -1.57614e-10 1.63295e-09 2.22167 -0.733487 -0.20892 5.96528e-14 1.88174e-13 -1.06819e-13 -85.4562 30.5331 11.6964 22.0751 -15.8736 -43.9795 0.00985491 -2.88299 0.405506 6.6483e-11 7.75611e-10 -7.30466e-10 1.20173e-10 1.34703e-09 -1.26161e-09 6.64778e-11 7.75604e-10 -7.30451e-10 -7.73091 5.47488 -0.417314 6.64814e-11 7.75609e-10 -7.30456e-10 -2.90554 0.965183 -0.102902 6.64762e-11 7.75609e-10 -7.30462e-10 -10.2786 0.731801 -0.0259123 6.64847e-11 7.75608e-10 -7.30464e-10 -2.22167 -0.733487 0.20892 -2.03217e-16 0.0 -3.88251e-19 5.07659 -15.2891 -0.282404 -0.231433 32.1482 0.470786 -0.340937 -16.2637 0.810842 2.03217e-16 0.0 3.88251e-19 -0.679157 -22.8001 -1.64435 0.255045 36.5887 -0.463786 -1.35058 -17.2603 -5.91449
10.5794 75.6473 94.1817 -4.3139 1.8715 9.188 6.14275 2.13301 2.22819 0.0714515 -5.61485 0.59263 -3.21785 -5.61725 -0.96551 -2.3482 -6.7678 -0.853806 -0.0 0.0 0.0 -0.0 0.0 0.0 1.03992e-13 2.45419e-13 -1.00644e-13 76.3143 32.6576 4.44818 -26.1692 -23.8769 57.4801 -0.0142378 3.42333 0.481686 -1.63434e-09 9.10302e-10 1.95549e-09 -2.81925e-09 1.54737e-09 3.38016e-09 -1.63434e-09 9.10314e-10 1.95548e-09 7.73091 5.47488 0.417314 -1.63433e-09 9.10303e-10 1.9555e-09 2.90554 0.965183 0.102902 -1.63433e-09 9.10316e-10 1.9555e-09 10.2786 0.731801 0.0259123 -1.63434e-09 9.10309e-10 1.95551e-09 2.22167 -0.733487 -0.20892 1.03731e-13 2.45422e-13 -1.0093e-13 -85.3517 31.4946 11.4377 22.3773 -16.3366 -44.8139 0.0141381 -3.4211 0.481373 -2.66365e-10 4.15203e-10 -1.04919e-09 -4.53169e-10 7.26449e-10 -1.81239e-09 -2.66369e-10 4.15198e-10 -1.04916e-09 -7.73091 5.47488 -0.417314 -2.66366e-10 4.15203e-10 -1.04918e-09 -2.90554 0.965183 -0.102902 -2.66371e-10 4.15202e-10 -1.04918e-09 -10.2786 0.731801 -0.0259123 -2.66362e-10 4.15199e-10 -1.04918e-09 -2.22167 -0.733487 0.20892 -2.03217e-16 0.0 -3.88251e-19 4.95466 -15.415 -0.264158 -0.234393 32.3825 0.476236 -0.323145 -16.7054 0.831376 2.03217e-16 0.0 3.88251e-19 -0.788287 -22.8277 -1.65631 0.255342 36.6299 -0.466129 -1.40156 -17.7027 -5.92532
10.6702 75.498 94.6236 -4.2529 1.987 9.4986 6.09583 2.2094 2.22735 0.0800976 -5.66912 0.593084 -3.2018 -5.59562 -0.960879 -2.45413 -6.95189 -0.861937 -0.0 0.0 0.0 -0.0 0.0 0.0 1.19861e-13 2.67163e-13 -8.84592e-14 76.2146 33.0601 4.46203 -26.1519 -23.831 57.4052 -0.0122319 3.15605 0.444008 -1.86442e-09 1.46223e-09 2.07926e-09 -3.21684e-09 2.50023e-09 3.59451e-09 -1.86442e-09 1.46224e-09 2.07925e-09 7.73091 5.47488 0.417314 -1.86442e-09 1.46224e-09 2.07926e-09 2.90554 0.965183 0.102902 -1.86442e-09 1.46225e-09 2.07926e-09 10.2786 0.731801 0.0259123 -1.86443e-09 1.46224e-09 2.07927e-09 2.22167 -0.733487 -0.20892 1.19583e-13 2.67168e-13 -8.8807e-14 -85.2154 32.4261 11.1483 22.6577 -16.7778 -45.6064 0.0189122 -3.92299 0.552211 -3.75711e-10 2.78885e-10 -1.22068e-09 -6.41065e-10 4.92483e-10 -2.10856e-09 -3.75715e-10 2.78882e-10 -1.22066e-09 -7.73091 5.47488 -0.417314 -3.75712e-10 2.78886e-10 -1.22067e-09 -2.90554 0.965183 -0.102902 -3.75717e-10 2.78885e-10 -1.22068e-09 -10.2786 0.731801 -0.0259123 -3.75708e-10 2.78881e-10 -1.22068e-09 -2.22167 -0.733487 0.20892 -2.03217e-16 0.0 -3.88251e-19 4.7884 -15.5931 -0.296741 -0.239001 32.74 0.484254 -0.315756 -17.1339 0.824105 2.03217e-16 0.0 3.88251e-19 -0.930516 -22.8493 -1.66112 0.25558 36.6655 -0.467365 -1.46153 -18.1515 -5.96135
10.7739 75.3407 95.0759 -4.0751 2.076 9.8203 5.95834 2.29326 2.19251 0.121514 -5.75471 0.585002 -3.17593 -5.53781 -0.956229 -2.54891 -7.14567 -0.875587 -0.0 0.0 0.0 -0.0 0.0 0.0 9.02375e-14 2.47248e-13 -6.57671e-14 76.1104 33.4779 4.46167 -26.1283 -23.7686 57.3048 -0.0106471 2.9373 0.41318 -1.76624e-09 1.12118e-09 2.04234e-09 -3.04806e-09 1.91276e-09 3.53152e-09 -1.76624e-09 1.12119e-09 2.04234e-09 7.73091 5.47488 0.417314 -1.76623e-09 1.12118e-09 2.04235e-09 2.90554 0.965183 0.102902 -1.76623e-09 1.12119e-09 2.04235e-09 10.2786 0.731801 0.0259123 -1.76624e-09 1.12119e-09 2.04236e-09 2.22167 -0.733487 -0.20892 8.99725e-14 2.47252e-13 -6.61541e-14 -85.0484 33.3197 10.833 22.9176 -17.1996 -46.3491 0.0237541 -4.39165 0.618423 -7.64657e-11 5.52841e-10 -1.29172e-09 -1.23167e-10 9.68422e-10 -2.23053e-09 -7.647e-11 5.52841e-10 -1.2917e-09 -7.73091 5.47488 -0.417314 -7.64657e-11 5.52843e-10 -1.29171e-09 -2.90554 0.965183 -0.102902 -7.64722e-11 5.52842e-10 -1.29172e-09 -10.2786 0.731801 -0.0259123 -7.64633e-11 5.52839e-10 -1.29172e-09 -2.22167 -0.733487 0.20892 -2.03217e-16 0.0 -3.88251e-19 4.57268 -15.8199 -0.372517 -0.245052 33.2109 0.495452 -0.332457 -17.5699 0.753349 2.03217e-16 0.0 3.88251e-19 -1.10891 -22.8705 -1.64759 0.255871 36.6941 -0.466823 -1.54029 -18.6044 -6.0477
10.8488 75.1794 95.5232 -3.9706 2.144 10.1419 5.75087 2.38851 2.13899 0.188906 -5.86308 0.572562 -3.14137 -5.4533 -0.951306 -2.63886 -7.34683 -0.893585 -0.0 0.0 0.0 -0.0 0.0 0.0 3.06772e-14 1.96498e-13 -3.30511e-14 75.9921 33.9172 4.45321 -26.1013 -23.6974 57.1909 -0.00925857 2.74303 0.385808 -1.4369e-09 1.82596e-10 1.87236e-09 -2.48055e-09 2.95237e-10 3.23877e-09 -1.4369e-09 1.826e-10 1.87235e-09 7.73091 5.47488 0.417314 -1.4369e-09 1.82592e-10 1.87236e-09 2.90554 0.965183 0.102902 -1.4369e-09 1.82603e-10 1.87236e-09 10.2786 0.731801 0.0259123 -1.43691e-09 1.82602e-10 1.87237e-09 2.22167 -0.733487 -0.20892 3.0448e-14 1.96498e-13 -3.34642e-14 -84.855 34.1999 10.5012 23.1648 -17.6131 -47.0654 0.0287567 -4.84231 0.682167 4.9167e-10 1.07338e-09 -1.29577e-09 8.59228e-10 1.87114e-09 -2.23637e-09 4.91666e-10 1.07339e-09 -1.29575e-09 -7.73091 5.47488 -0.417314 4.91672e-10 1.07339e-09 -1.29577e-09 -2.90554 0.965183 -0.102902 4.91663e-10 1.07339e-09 -1.29577e-09 -10.2786 0.731801 -0.0259123 4.91671e-10 1.07339e-09 -1.29578e-09 -2.22167 -0.733487 0.20892 -2.03217e-16 0.0 -3.88251e-19 4.31764 -16.083 -0.474556 -0.25251 33.775 0.509219 -0.365862 -18.0137 0.641623 2.03217e-16 0.0 3.88251e-19 -1.31737 -22.8861 -1.62221 0.256169 36.7182 -0.465224 -1.62889 -19.0621 -6.15698
